<svg id="보기2" xmlns="http://www.w3.org/2000/svg" width="20" height="20" viewBox="0 0 20 20">
  <rect id="area" width="20" height="20" fill="none"/>
  <path id="패스_63714" data-name="패스 63714" d="M87.329,142.631a.506.506,0,0,0-.015-.053c-.09-.172-2.268-4.2-8.773-4.2a11.357,11.357,0,0,0-8.385,4.141h0l-.007.009a.4.4,0,0,0-.022.044.379.379,0,0,0-.037.076.3.3,0,0,0-.008.067.345.345,0,0,0,0,.069.362.362,0,0,0,.023.079.377.377,0,0,0,.014.05c.09.172,2.267,4.2,8.773,4.2a11.356,11.356,0,0,0,8.385-4.141h0l.007-.009a.306.306,0,0,0,.022-.045.356.356,0,0,0,.037-.076.277.277,0,0,0,.008-.067.378.378,0,0,0,.005-.07.362.362,0,0,0-.022-.076Zm-8.615,4.095a3.982,3.982,0,1,1,3.983-3.982A3.986,3.986,0,0,1,78.714,146.726Z" transform="translate(-68.713 -132.744)" fill="#cc74ff"/>
  <path id="패스_63715" data-name="패스 63715" d="M289.012,217.07a1.942,1.942,0,1,0,1.941,1.942A1.944,1.944,0,0,0,289.012,217.07Z" transform="translate(-279.012 -209.012)" fill="#cc74ff"/>
</svg>
